<svg width="32" height="32" viewBox="0 0 32 32" xmlns="http://www.w3.org/2000/svg">
	<defs>
		<!-- Gradiente para o fundo representando o Brasil -->
		<linearGradient id="brazilGradient" x1="0%" y1="0%" x2="100%" y2="100%">
			<stop offset="0%" style="stop-color:#009C3B;stop-opacity:1" />
			<stop offset="100%" style="stop-color:#FFDF00;stop-opacity:1" />
		</linearGradient>
		<!-- Gradiente para a coluna -->
		<linearGradient id="columnGradient" x1="0%" y1="0%" x2="100%" y2="100%">
			<stop offset="0%" style="stop-color:#2563EB;stop-opacity:1" />
			<stop offset="100%" style="stop-color:#1E40AF;stop-opacity:1" />
		</linearGradient>
	</defs>
	<!-- Fundo circular com as cores do Brasil -->
	<circle cx="16" cy="16" r="15" fill="url(#brazilGradient)" stroke="#0F172A" stroke-width="1" />
	<!-- Coluna representando conteúdo editorial -->
	<rect x="8" y="6" width="16" height="20" fill="white" rx="2" stroke="#334155" stroke-width="0.5" />
	<!-- Linhas de texto na coluna -->
	<rect x="10" y="8" width="12" height="1.5" fill="url(#columnGradient)" rx="0.5" />
	<rect x="10" y="10.5" width="10" height="1" fill="#64748B" rx="0.5" />
	<rect x="10" y="12.5" width="11" height="1" fill="#64748B" rx="0.5" />
	<rect x="10" y="14.5" width="9" height="1" fill="#64748B" rx="0.5" />
	<!-- Símbolo do visto/carimbo -->
	<circle cx="19" cy="20" r="3" fill="#DC2626" stroke="white" stroke-width="0.5" />
	<path d="M17.5 20 L18.5 21 L20.5 19" stroke="white" stroke-width="1" fill="none" stroke-linecap="round" stroke-linejoin="round" />
	<!-- Pequena bandeira do Brasil -->
	<rect x="10" y="17" width="8" height="5" fill="#009C3B" rx="0.5" />
	<polygon points="10,19.5 14,17.5 18,19.5 14,21.5" fill="#FFDF00" />
	<circle cx="14" cy="19.5" r="1" fill="#002776" />
</svg>
